<svg id="Слой_1" data-name="Слой 1" xmlns="http://www.w3.org/2000/svg" viewBox="0 0 216 126.14"><defs><style>.cls-1{stroke:#000;stroke-miterlimit:10;}</style></defs><title>eds_logo</title><path class="cls-1" d="M111.39,23.23a60,60,0,1,0,.78,77.68,62.56,62.56,0,1,1-.78-77.68ZM36.62,56.91c0,6.26,5.71,11.07,14,11.07a18.18,18.18,0,0,0,10.18-3l-2.13-3a13.58,13.58,0,0,1-7.74,2.47c-4.72,0-8.78-2.47-9-7H61a9.5,9.5,0,0,0,.21-1.71c0-5.43-3.94-9.9-11.37-9.9S36.62,50.18,36.62,56.91ZM42,54.53C42.75,51,45.81,49,49.71,49c3.42,0,6.23,1.92,6.38,5.56ZM82.19,68c-8.3,0-14.07-4.72-14.07-11.07s5.82-11.07,14.07-11.07c3.48,0,7.38,1,9.87,3.09l-2.39,2.84a12.07,12.07,0,0,0-7.27-2.42c-5.29,0-9.14,3.21-9.14,7.52s3.85,7.6,9.3,7.6a13.24,13.24,0,0,0,8.1-2.84l2,3C90.3,66.64,86.3,68,82.19,68Zm18.54-6.31c0,5.35,4.15,6,7.06,6a12.8,12.8,0,0,0,1.5-.1h0l.16,0V64a7.26,7.26,0,0,1-.88,0c-1.56,0-2.86-.5-2.86-3V38h-5Zm21.53-19.59h-5.19V38h5.19Zm-.05,25.4h-5V46.34h5Zm10.33,8.35h5V66.22a8,8,0,0,0-.2-1.84h.1a10.39,10.39,0,0,0,8.15,3.6c6.91,0,11.89-4.35,11.89-11.07,0-6.56-4.41-11.07-11.53-11.07-3.84,0-7.16,1.42-8.82,4h-.11a8.05,8.05,0,0,0,.16-1.59V46.34h-4.68ZM137.43,57c0-5.35,3.63-7.6,7.58-7.6,4.36,0,7.42,3,7.42,7.56,0,4.8-3.42,7.52-7.58,7.52A7.22,7.22,0,0,1,137.43,57Zm36.69,11c-3.53,0-7.43-1-10-3.09l2.39-2.76a13.18,13.18,0,0,0,7.73,2.46c2.65,0,4.47-1,4.47-2.75s-2.54-2.55-5.41-3.45c-3.76-1.17-8.09-2.52-8.09-6.45s4.31-6.1,9.45-6.1a14.73,14.73,0,0,1,8.51,2.34l-2,2.92a12.12,12.12,0,0,0-6.65-1.88c-2.54,0-4.46.84-4.46,2.63s2.56,2.59,5.46,3.48c3.76,1.15,8.09,2.48,8.09,6.42C183.57,65.35,179.73,68,174.12,68Zm16.32-11.07c0,6.26,5.71,11.07,14,11.07a18.13,18.13,0,0,0,10.17-3l-2.12-3a13.58,13.58,0,0,1-7.74,2.47c-4.73,0-8.78-2.47-9-7h19.11a9.5,9.5,0,0,0,.21-1.71c0-5.43-3.95-9.9-11.37-9.9S190.44,50.18,190.44,56.91Zm5.4-2.38c.73-3.51,3.79-5.56,7.68-5.56,3.43,0,6.24,1.92,6.39,5.56ZM64.48,88.88V75.32h-.92v6.23A4.27,4.27,0,0,0,62,79.87a4.37,4.37,0,0,0-2.29-.6,4.78,4.78,0,0,0-2.41.62,4.27,4.27,0,0,0-1.7,1.72,5.43,5.43,0,0,0,0,5,4.46,4.46,0,0,0,1.7,1.72,4.68,4.68,0,0,0,2.41.62,4.54,4.54,0,0,0,2.33-.6,4.08,4.08,0,0,0,1.59-1.72v2.25Zm-2.8-1.26a3.79,3.79,0,0,1-2,.51,3.89,3.89,0,0,1-2-.51,3.77,3.77,0,0,1-1.37-1.43,4.66,4.66,0,0,1,0-4.16,3.77,3.77,0,0,1,1.37-1.43,3.89,3.89,0,0,1,2-.51,3.79,3.79,0,0,1,2,.51A3.63,3.63,0,0,1,63.05,82a4.5,4.5,0,0,1,0,4.16A3.63,3.63,0,0,1,61.68,87.62Zm6.95-10.8a.72.72,0,0,0,.53.2.75.75,0,0,0,.75-.75.7.7,0,0,0-.22-.51.77.77,0,0,0-.53-.22.73.73,0,0,0-.53.22.71.71,0,0,0-.22.53A.69.69,0,0,0,68.63,76.82Zm13.8,11V79.34h-.87V81.5a4,4,0,0,0-1.63-1.65,4.85,4.85,0,0,0-2.38-.58,5.07,5.07,0,0,0-2.43.58,4.37,4.37,0,0,0-1.71,1.65,4.92,4.92,0,0,0,0,4.78A4.5,4.5,0,0,0,75.12,88a5.07,5.07,0,0,0,2.43.58A4.9,4.9,0,0,0,79.89,88a4.07,4.07,0,0,0,1.63-1.61V88a3.77,3.77,0,0,1-.92,2.79,3.82,3.82,0,0,1-2.81.91,6.28,6.28,0,0,1-2.14-.36,5.07,5.07,0,0,1-1.72-1l-.5.69a4.74,4.74,0,0,0,1.89,1.11,7.56,7.56,0,0,0,2.49.41,4.76,4.76,0,0,0,3.47-1.14A4.7,4.7,0,0,0,82.43,87.86ZM69.61,79.34H68.7v9.54h.91Zm10,7.89a4.15,4.15,0,0,1-2,.48,4.2,4.2,0,0,1-2-.48,3.54,3.54,0,0,1-1.39-1.35,4,4,0,0,1-.49-2,3.87,3.87,0,0,1,.49-2,3.58,3.58,0,0,1,1.39-1.34,4.21,4.21,0,0,1,2-.49,4.15,4.15,0,0,1,2,.49A3.48,3.48,0,0,1,81,81.92a3.78,3.78,0,0,1,.51,2,3.88,3.88,0,0,1-.51,2A3.44,3.44,0,0,1,79.63,87.23Zm8-7.89h-.92v9.54h.92Zm-1-2.52a.73.73,0,0,0,.53.2.71.71,0,0,0,.53-.22.69.69,0,0,0,.22-.53.67.67,0,0,0-.22-.51.75.75,0,0,0-1.06,0,.71.71,0,0,0-.22.53A.69.69,0,0,0,86.6,76.82Zm9.07,12a2.46,2.46,0,0,0,.88-.51l-.39-.64a2.13,2.13,0,0,1-1.48.53,1.75,1.75,0,0,1-1.33-.48,2,2,0,0,1-.44-1.42V80.13h3v-.79h-3V77.26H92v2.08H90.23v.79H92v6.23a2.66,2.66,0,0,0,.68,1.92,2.6,2.6,0,0,0,1.92.67A3.49,3.49,0,0,0,95.67,88.79Zm9.74-8.61a3.77,3.77,0,0,0-2.73-.91,6.18,6.18,0,0,0-2.1.36,5.28,5.28,0,0,0-1.72,1l.46.66a4.52,4.52,0,0,1,1.46-.88,5.2,5.2,0,0,1,1.83-.33,2.85,2.85,0,0,1,2.1.7,2.66,2.66,0,0,1,.74,2v.76h-3.28a4.07,4.07,0,0,0-2.72.75,2.58,2.58,0,0,0,.07,3.89A3.9,3.9,0,0,0,102,89a4.59,4.59,0,0,0,2.11-.45,3.25,3.25,0,0,0,1.33-1.32v1.7h.88v-6A3.49,3.49,0,0,0,105.41,80.18Zm-1.23,7.47a3.49,3.49,0,0,1-2,.55,3.15,3.15,0,0,1-2-.53,1.79,1.79,0,0,1-.69-1.48,1.73,1.73,0,0,1,.62-1.4,3.3,3.3,0,0,1,2-.51h3.26v1.79A3.24,3.24,0,0,1,104.18,87.65Zm7.23-12.33h-.91V88.88h.91Zm29.77,13.29a6.88,6.88,0,0,0,2.19.34,4.72,4.72,0,0,0,2.78-.71,2.24,2.24,0,0,0,1-1.9,2,2,0,0,0-.48-1.41,2.62,2.62,0,0,0-1.17-.73,12.29,12.29,0,0,0-1.79-.44c-.67-.13-1.19-.25-1.57-.36a2.62,2.62,0,0,1-.94-.53,1.34,1.34,0,0,1-.38-1,1.53,1.53,0,0,1,.68-1.29,3.38,3.38,0,0,1,2-.5,5.73,5.73,0,0,1,1.54.22,4.43,4.43,0,0,1,1.33.64l.42-.73a4.5,4.5,0,0,0-1.46-.67,6.24,6.24,0,0,0-1.81-.26,4.24,4.24,0,0,0-2.69.75,2.27,2.27,0,0,0-.93,1.86,2,2,0,0,0,.49,1.46,2.85,2.85,0,0,0,1.19.77,11.76,11.76,0,0,0,1.83.44c.64.12,1.15.24,1.52.35a2.25,2.25,0,0,1,.91.51,1.21,1.21,0,0,1,.39,1,1.5,1.5,0,0,1-.7,1.31,3.71,3.71,0,0,1-2.12.48,5.77,5.77,0,0,1-1.94-.33A4.84,4.84,0,0,1,140,87l-.42.73A4.7,4.7,0,0,0,141.18,88.61Zm12.74.18a2.37,2.37,0,0,0,.88-.51l-.39-.64a2.13,2.13,0,0,1-1.48.53,1.75,1.75,0,0,1-1.33-.48,2,2,0,0,1-.44-1.42V80.13h3v-.79h-3V77.26h-.92v2.08h-1.75v.79h1.75v6.23a2.66,2.66,0,0,0,.68,1.92,2.6,2.6,0,0,0,1.92.67A3.49,3.49,0,0,0,153.92,88.79Zm11.28.09h.87V79.34h-.91v5.08a3.81,3.81,0,0,1-.95,2.71,3.29,3.29,0,0,1-2.54,1,3.12,3.12,0,0,1-2.33-.84,3.36,3.36,0,0,1-.82-2.45v-5.5h-.92v5.57a3.65,3.65,0,0,0,4,4,4.23,4.23,0,0,0,2.2-.55,3.58,3.58,0,0,0,1.41-1.57Zm13.61,0V75.32h-.92v6.23a4.2,4.2,0,0,0-1.61-1.68,4.36,4.36,0,0,0-2.28-.6,4.82,4.82,0,0,0-2.42.62,4.27,4.27,0,0,0-1.7,1.72,5.51,5.51,0,0,0,0,5,4.46,4.46,0,0,0,1.7,1.72A4.72,4.72,0,0,0,174,89a4.51,4.51,0,0,0,2.32-.6,4.08,4.08,0,0,0,1.59-1.72v2.25ZM176,87.62a3.79,3.79,0,0,1-2,.51,3.89,3.89,0,0,1-2-.51,3.77,3.77,0,0,1-1.37-1.43,4.66,4.66,0,0,1,0-4.16,3.77,3.77,0,0,1,1.37-1.43,3.89,3.89,0,0,1,2-.51,3.79,3.79,0,0,1,2,.51A3.63,3.63,0,0,1,177.38,82a4.5,4.5,0,0,1,0,4.16A3.63,3.63,0,0,1,176,87.62ZM184,79.34H183v9.54H184Zm-1-2.52a.77.77,0,0,0,1.06,0,.73.73,0,0,0,.22-.53.7.7,0,0,0-.22-.51.75.75,0,0,0-.53-.22.73.73,0,0,0-.53.22.71.71,0,0,0-.22.53A.69.69,0,0,0,183,76.82Zm6.49,11.51a4.83,4.83,0,0,0,2.45.62,4.73,4.73,0,0,0,2.43-.62,4.44,4.44,0,0,0,1.72-1.72,5,5,0,0,0,.62-2.5,4.86,4.86,0,0,0-.62-2.48,4.36,4.36,0,0,0-1.72-1.74,4.83,4.83,0,0,0-2.43-.62,4.93,4.93,0,0,0-2.45.62,4.38,4.38,0,0,0-1.7,1.74,4.87,4.87,0,0,0-.63,2.48,5,5,0,0,0,.63,2.5A4.46,4.46,0,0,0,189.45,88.33Zm4.41-.71a3.79,3.79,0,0,1-2,.51,3.89,3.89,0,0,1-2-.51,3.77,3.77,0,0,1-1.37-1.43,4.66,4.66,0,0,1,0-4.16,3.77,3.77,0,0,1,1.37-1.43,3.89,3.89,0,0,1,2-.51,3.79,3.79,0,0,1,2,.51A3.63,3.63,0,0,1,195.23,82a4.5,4.5,0,0,1,0,4.16A3.63,3.63,0,0,1,193.86,87.62Z" transform="translate(0.5 0.5)"/></svg>